{"title":"Baby.Driver.2017.TS.READNFO.XViD-26k","magnet":"magnet:?xt=urn:btih:35e6f19a7a1f3cfb8653c3d6365b46e18f546c55&dn=Baby.Driver.2017.TS.READNFO.XViD-26k&tr=udp%3A%2F%2Ftracker.leechers-paradise.org%3A6969&tr=udp%3A%2F%2Fzer0day.ch%3A1337&tr=udp%3A%2F%2Fopen.demonii.com%3A1337&tr=udp%3A%2F%2Ftracker.coppersurfer.tk%3A6969&tr=udp%3A%2F%2Fexodus.desync.com%3A6969","uploader":"makintos13","categoryP":"video","categoryS":"movies","size":"1521122074","seeders":"30","leechers":"154","description":"screens:\r\n <a href=\"\nhttps://imgmak.com/z8Y\" rel=\"nofollow\" target=\"_NEW\">\nhttps://imgmak.com/z8Y</a>\r\n <a href=\"\nhttps://imgmak.com/z80\" rel=\"nofollow\" target=\"_NEW\">\nhttps://imgmak.com/z80</a>\r\n <a href=\"\nhttps://imgmak.com/z8A\" rel=\"nofollow\" target=\"_NEW\">\nhttps://imgmak.com/z8A</a>\r\n <a href=\"\nhttps://imgmak.com/z8D\" rel=\"nofollow\" target=\"_NEW\">\nhttps://imgmak.com/z8D</a>\r\n\r\nMuxing mode                 : Packed bitstream\r\nCodec ID                    : XVID\r\nCodec ID/Hint               : XviD\r\nDuration                    : 1h 49mn\r\nBit rate                    : 1 690 Kbps\r\nWidth                       : 720 pixels\r\nHeight                      : 304 pixels\r\nDisplay aspect ratio        : 2.35:1\r\nFrame rate                  : 29.970 fps\r\nColor space                 : YUV\r\nChroma subsampling          : 4:2:0\r\nBit depth                   : 8 bits\r\nScan type                   : Progressive\r\nCompression mode            : Lossy\r\nBits/(Pixel*Frame)          : 0.258\r\nStream size                 : 1.29 GiB (92%)\r\nWriting library             : XviD 67\r\n\r\nAudio\r\nID                          : 1\r\nFormat                      : MPEG Audio\r\nFormat version              : Version 1\r\nFormat profile              : Layer 3\r\nMode                        : Joint stereo\r\nMode extension              : MS Stereo\r\nCodec ID                    : 55\r\nCodec ID/Hint               : MP3\r\nDuration                    : 1h 49mn\r\nBit rate mode               : Constant\r\nBit rate                    : 128 Kbps\r\nChannel(s)                  : 2 channels\r\nSampling rate               : 48.0 KHz\r\nCompression mode            : Lossy\r\nDelay relative to video     : 17ms\r\nStream size                 : 100 MiB (7%)\r\nAlignment                   : Split accross interleaves\r\nInterleave, duration        : 33 ms (1.00 video frame)\r\n\r\nTook the nice source we were passed and went to work.. Made script to crop and resize (there is still lil border at start for a min or 2 then it goes away) then we dropped into vdub and threw a few filters at it then a buddy did the sync job for us to this vid as we have to much shit to do and not enought time.. thanks for the spot on sync job.. cleaned audio then muxed it to encode.. enjoy til SUBBED HDRip or WEB-DL\r\n\r\nREASON FOR NFO (FEW OF THEM ACTUALLY)\r\n\r\n1) this movie does have the same ghosted in watermark that few of our other releases had and we didnt blur them as that would ruin the movie and you can barely tell they are there.\r\n\r\n2) UnK do you really think leaking an INTERNAL bothers us.. come on bitchboy us LEAKING you VIP&apos;s hurts you leaking an INTERNAL hurts nobody as its not being paid for like your VIP&apos;s and be warned Girls Trip is goin to LEAK soon .. and then will follow up with out encode from different BETTER source.. come on bitchoby what you got.. we will leak your shit all day everyday as P2P .. sharing is caring VIP is bullshit for $30 a wk for sum BULLSHIT CAMS OF YOUR SHITTY ENCODING SKILLS.... btw hit us up will see ya sum shit if u hard up for sources... we wont charge ya a dick sucking.. and wont ask for your ex wife to do it either since she on CPG&apos;s dick now...  \r\n\r\n3) Did what we could with the LiNE.. got most the hiss out of source BUT there is still sum as if we woulda taken it all out woulda got robotic like TiTANs release int he high range","last_updated":"2017-08-05T12:02:26.843Z","parsed":{"xt":"urn:btih:35e6f19a7a1f3cfb8653c3d6365b46e18f546c55","dn":"Baby.Driver.2017.TS.READNFO.XViD-26k","tr":["udp://exodus.desync.com:6969","udp://open.demonii.com:1337","udp://tracker.coppersurfer.tk:6969","udp://tracker.leechers-paradise.org:6969","udp://zer0day.ch:1337"],"infoHash":"35e6f19a7a1f3cfb8653c3d6365b46e18f546c55","infoHashBuffer":{"type":"Buffer","data":[53,230,241,154,122,31,60,251,134,83,195,214,54,91,70,225,143,84,108,85]},"name":"Baby.Driver.2017.TS.READNFO.XViD-26k","announce":["udp://exodus.desync.com:6969","udp://open.demonii.com:1337","udp://tracker.coppersurfer.tk:6969","udp://tracker.leechers-paradise.org:6969","udp://zer0day.ch:1337"],"urlList":[]}}